# xmcd
#
# Track frame offsets:
#	150
#	18302
#	40352
#	59492
#	78357
#	100240
#	122405
#	140350
#	157600
#	180317
#	191467
#	213437
#
# Disc length: 3109 seconds
#
# Revision: 1
# Processed by: cddbd v1.5.1PL0 Copyright (c) Steve Scherf et al.
# Submitted via: CDex 1.50Beta5
#
DISCID=910c230c
DTITLE=ANGEL - CHERISH
DYEAR=1900
DGENRE=Pop
TTITLE0=春の宵〜夢の始まり〜
TTITLE1=桜の花が咲く頃に
TTITLE2=翼
TTITLE3=YOUR CHEER GIRL
TTITLE4=CHERISH〜聖なる光〜
TTITLE5=五月雨(サミダレ) -Album mix-
TTITLE6=メビウスの魔法〜2∞3〜
TTITLE7=Wish your happiness
TTITLE8=我愛弥誓(ウォーアイニーシー)
TTITLE9=輝姫(かぐやひめ) -piano ver.-
TTITLE10=LOVE PAIN -Album mix-
TTITLE11=向日葵
EXTD=
EXTT0=
EXTT1=
EXTT2=
EXTT3=
EXTT4=
EXTT5=
EXTT6=
EXTT7=
EXTT8=
EXTT9=
EXTT10=
EXTT11=
PLAYORDER=
